<?xml version="1.0" standalone="no"?><!DOCTYPE svg PUBLIC "-//W3C//DTD SVG 1.1//EN" "http://www.w3.org/Graphics/SVG/1.1/DTD/svg11.dtd"><svg t="1528623383928" class="icon" style="" viewBox="0 0 1092 1024" version="1.1" xmlns="http://www.w3.org/2000/svg" p-id="493" xmlns:xlink="http://www.w3.org/1999/xlink" width="213.28125" height="200"><defs><style type="text/css"></style></defs><path d="M1092.266667 443.938133V887.466667a136.533333 136.533333 0 0 1-136.533334 136.533333H136.533333a136.533333 136.533333 0 0 1-136.533333-136.533333V409.6h6.894933c10.308267-28.808533 32.5632-51.063467 61.371734-61.371733V341.333333h68.266666V68.266667a68.266667 68.266667 0 0 1 68.266667-68.266667h682.666667a68.266667 68.266667 0 0 1 68.266666 68.266667v273.066666h68.266667v6.894934c28.808533 10.308267 51.063467 32.5632 61.371733 61.371733H1092.266667v34.338133zM819.2 204.8a68.266667 68.266667 0 0 0-68.266667-68.266667H341.333333a68.266667 68.266667 0 0 0-68.266666 68.266667v219.7504c89.4976 54.340267 192.170667 116.189867 204.8 121.514667 55.432533 23.483733 81.032533 19.2512 136.533333 0 14.7456-5.12 116.258133-66.423467 204.8-120.6272V204.8z m136.533333 317.2352c-122.538667 66.218667-289.245867 155.374933-330.683733 173.397333-59.869867 26.0096-100.283733 23.483733-160.017067 0C420.727467 675.908267 257.2288 587.1616 136.533333 521.0112V819.2a68.266667 68.266667 0 0 0 68.266667 68.266667h682.666667a68.266667 68.266667 0 0 0 68.266666-68.266667V522.0352zM580.266667 409.6h-204.8a34.133333 34.133333 0 0 1 0-68.266667h204.8a34.133333 34.133333 0 0 1 0 68.266667zM341.333333 238.933333a34.133333 34.133333 0 0 1 34.133334-34.133333h341.333333a34.133333 34.133333 0 0 1 0 68.266667h-341.333333a34.133333 34.133333 0 0 1-34.133334-34.133334z" p-id="494"></path></svg>